<svg width="41" height="38" viewBox="0 0 41 38" fill="none" xmlns="http://www.w3.org/2000/svg">
<g clip-path="url(#clip0_5_313)" filter="url(#filter0_d_5_313)">
<circle cx="10.8901" cy="13" r="10.5" fill="url(#paint0_linear_5_313)"/>
<path fill-rule="evenodd" clip-rule="evenodd" d="M22.8902 27.25C27.0323 27.25 30.3902 23.8921 30.3902 19.75C30.3902 15.6078 27.0323 12.25 22.8902 12.25C22.1644 12.25 21.4626 12.3531 20.7989 12.5454C19.5493 10.1418 17.0364 8.50003 14.1401 8.50003C9.99797 8.50003 6.64011 11.8579 6.64011 16L6.64018 16.0343C6.43496 16.0116 6.22641 16 6.01514 16C2.90853 16 0.390137 18.5184 0.390137 21.625C0.390137 24.5203 2.5777 26.9048 5.39019 27.2157V27.25H22.8902V27.25Z" fill="url(#paint1_linear_5_313)"/>
</g>
<defs>
<filter id="filter0_d_5_313" x="0.390137" y="0" width="41.8132" height="40" filterUnits="userSpaceOnUse" color-interpolation-filters="sRGB">
<feFlood flood-opacity="0" result="BackgroundImageFix"/>
<feColorMatrix in="SourceAlpha" type="matrix" values="0 0 0 0 0 0 0 0 0 0 0 0 0 0 0 0 0 0 127 0" result="hardAlpha"/>
<feOffset dx="5" dy="5"/>
<feGaussianBlur stdDeviation="2.5"/>
<feColorMatrix type="matrix" values="0 0 0 0 0 0 0 0 0 0 0 0 0 0 0 0 0 0 0.25 0"/>
<feBlend mode="normal" in2="BackgroundImageFix" result="effect1_dropShadow_5_313"/>
<feBlend mode="normal" in="SourceGraphic" in2="effect1_dropShadow_5_313" result="shape"/>
</filter>
<linearGradient id="paint0_linear_5_313" x1="0.390137" y1="2.5" x2="10.1401" y2="12.25" gradientUnits="userSpaceOnUse">
<stop stop-color="#FAE26F"/>
<stop offset="1" stop-color="#F7BC3D"/>
</linearGradient>
<linearGradient id="paint1_linear_5_313" x1="7.94222" y1="20" x2="16.5804" y2="30.7978" gradientUnits="userSpaceOnUse">
<stop stop-color="white"/>
<stop offset="1" stop-color="#BDE0F5"/>
</linearGradient>
<clipPath id="clip0_5_313">
<rect width="31.8132" height="30" fill="white" transform="translate(0.390137)"/>
</clipPath>
</defs>
</svg>
